<svg xmlns="http://www.w3.org/2000/svg" viewBox="0 0 100 100">
  <rect width="100" height="100" fill="#FFFFFF"/>
  <svg x="10" y="10" width="80" height="80" viewBox="740 365 80 115" preserveAspectRatio="xMidYMid meet">
    <path d="M801.17,473.97h15.39l-38.27-102.96h-3.67l-41.25,102.96h15.53l7.49-21.42.5-1.42c.72.67,1.44,1.35,2.13,2.05,2.29,2.3,4.38,4.8,6.55,7.22,1.17-.11,2.34-.22,3.51-.33-1.57-1.48-3.15-2.96-4.72-4.44,1,.2,2.14.14,2.96.63,5.08,3.03,10.47,4.71,16.43,4.12,1.4-.14,2.78-.45,4.26-.44-2.91,3.08-6.23,5.38-10.68,5.15-3.58-.19-5.61-3.16-8.25-5.02-1.17.11-2.34.22-3.51.33,2.96,2.34,5.63,5.29,8.95,6.86,5.26,2.49,9.85-.25,14.03-3.47.62-.48,1.18-1.04,1.81-1.49.21-.15.57-.09,1.41-.2.23,2.22.46,4.42.69,6.61-.19.96-.38,1.92-.57,2.89,1.75.79,3.49,1.57,5.24,2.36.75,0,1.5.02,2.25.03-.72-1.03-1.34-2.15-2.18-3.07-1.87-2.07-2.33-4.37-1.52-6.99.11-.37.3-.78.23-1.13-.35-1.7-.28-3.23.09-4.64l5.17,15.82ZM787.84,453.96c-.8.53-1.51,1.23-2.37,1.62-.72.33-1.94.72-2.35.38-3.07-2.57-6.46-1.82-9.67-.85-2.14.65-3.47.04-4.81-1.35-.53-2.69-2.73-4.4-5.4-4.77-1.71-.24-3.43-.93-4.96-1.77,0,0,0,0,0,0l17.53-49.59,17.97,53.71c-2.04.76-4.13,1.44-5.93,2.62Z" fill="#1A1A1A"/>
  </svg>
</svg>
